<svg width="119" height="95" viewBox="0 0 119 95" fill="none" xmlns="http://www.w3.org/2000/svg">
<path d="M21.0696 29.619H21.43C24.7933 29.3787 27.3158 26.4959 27.1957 23.1326C26.9555 19.7693 24.0727 17.2467 20.7094 17.3669C17.346 17.487 14.8235 20.4899 14.9436 23.8532C15.0637 27.0965 17.8265 29.619 21.0696 29.619ZM18.1868 20.9704C18.7874 20.2497 19.7484 19.7693 20.7094 19.7693H20.9496C22.9916 19.7693 24.6733 21.4509 24.6733 23.493C24.6733 25.535 22.9916 27.2166 20.9496 27.2166C18.9075 27.2166 17.2259 25.535 17.2259 23.493C17.2259 22.532 17.5863 21.6912 18.1868 20.9704Z" fill="#003F91"/>
<path d="M103.232 22.8926L71.1598 21.0909L70.9196 17.4872C70.5592 10.6405 64.6734 5.35527 57.7065 5.71563L16.9863 7.99788C10.1395 8.35823 4.8543 14.3642 5.21465 21.2109L7.4969 62.0512V63.0122C8.33774 69.2584 13.6229 73.943 19.8692 73.943H20.5898L46.6556 72.5016V73.2223C46.2952 80.069 51.4603 86.0751 58.4272 86.4354L99.2676 88.8378H99.9882C106.595 88.8378 112.12 83.6727 112.481 77.0661L114.883 36.2258C115.363 29.2589 110.078 23.3731 103.232 22.8926ZM10.1395 13.7636C11.9413 11.7216 14.4637 10.5204 17.1064 10.4002L57.9467 8.118C63.4722 7.75764 68.2769 12.0819 68.6373 17.6074L68.8775 20.9707L62.5112 20.6103C55.6644 20.2499 49.6585 25.415 49.2982 32.382L48.5775 43.7932L37.1662 56.6459C36.926 57.0063 36.4455 57.1265 35.965 57.2465C35.4846 57.2465 35.1242 57.1265 34.7638 56.7661L25.3946 48.3577C23.7129 46.7962 21.1904 47.0365 19.6288 48.7181L9.89927 59.6489L7.73714 21.2109C7.4969 18.4482 8.45786 15.8056 10.1395 13.7636ZM20.5898 71.4206C15.4247 71.6608 10.8602 68.0573 10.0194 62.8922L21.3106 50.2797C21.5508 49.9193 22.0313 49.7992 22.5117 49.6791C22.9922 49.6791 23.3525 49.7992 23.7129 50.1595L33.0821 58.5679C33.923 59.2885 35.0041 59.6489 36.0852 59.6489C37.1662 59.6489 38.1272 59.0483 38.8479 58.3277L48.2171 47.7571L46.8958 70.0992L20.5898 71.4206ZM112.481 35.9856L110.078 76.8259C109.718 82.3513 104.913 86.6756 99.3876 86.3153L58.5473 83.9129C53.0219 83.5525 48.6976 78.7478 49.0579 73.2223L51.4603 32.382C51.8207 27.0968 56.145 22.8926 61.5503 22.8926H62.1509L102.991 25.295C108.637 25.6554 112.841 30.4601 112.481 35.9856Z" fill="#003F91"/>
<path d="M95.4239 50.7602L75.1238 37.4271C72.6012 35.7455 69.2379 36.4661 67.6764 38.9886C67.1959 39.8294 66.8356 40.6702 66.8356 41.6312L65.3942 65.775C65.274 68.778 67.4362 71.3005 70.4391 71.5407H70.7995C71.6404 71.5407 72.4812 71.3005 73.2018 70.9401L94.8233 60.1295C97.4659 58.8082 98.5469 55.565 97.2256 52.9223C96.7451 52.0815 96.1445 51.3608 95.4239 50.7602ZM93.7422 57.9674L72.1208 68.778C71.6404 69.0183 71.1599 69.1384 70.5593 69.1384C70.0788 69.1384 69.4783 68.8982 69.1179 68.6579C68.2771 68.0574 67.6765 67.0964 67.7965 66.0153L69.2379 41.8715C69.3581 40.7904 69.9587 39.8294 70.9196 39.349C71.8806 38.8684 72.9616 38.9886 73.9226 39.469L93.9824 52.8023C95.4239 53.7633 95.7841 55.565 94.8233 56.8862C94.583 57.3668 94.2227 57.7272 93.7422 57.9674Z" fill="#003F91"/>
</svg>
